<?xml version="1.0" encoding="UTF-8" standalone="no"?>
<svg
   width="260"
   height="42"
   viewBox="0 0 260 42"
   fill="none"
   version="1.1"
   id="svg27"
   sodipodi:docname="EETICommunity.svg"
   inkscape:version="1.2.1 (9c6d41e410, 2022-07-14)"
   xmlns:inkscape="http://www.inkscape.org/namespaces/inkscape"
   xmlns:sodipodi="http://sodipodi.sourceforge.net/DTD/sodipodi-0.dtd"
   xmlns="http://www.w3.org/2000/svg"
   xmlns:svg="http://www.w3.org/2000/svg" shape-rendering="geometricPrecision">
  <sodipodi:namedview
     id="namedview29"
     pagecolor="#505050"
     bordercolor="#ffffff"
     borderopacity="1"
     inkscape:showpageshadow="0"
     inkscape:pageopacity="0"
     inkscape:pagecheckerboard="1"
     inkscape:deskcolor="#505050"
     showgrid="false"
     inkscape:zoom="3.3098037"
     inkscape:cx="146.08117"
     inkscape:cy="53.628559"
     inkscape:window-width="1920"
     inkscape:window-height="1020"
     inkscape:window-x="0"
     inkscape:window-y="0"
     inkscape:window-maximized="1"
     inkscape:current-layer="svg27" />
  <g
     filter="url(#filter0_d_8_20)"
     id="g6">
    <path
       d="M8.688 6.28V11.88H16.208V15.432H8.688V21.352H17.168V25H4.208V2.632H17.168V6.28H8.688ZM25.7193 6.28V11.88H33.2393V15.432H25.7193V21.352H34.1993V25H21.2393V2.632H34.1993V6.28H25.7193ZM53.4705 2.664V6.28H47.5185V25H43.0385V6.28H37.0865V2.664H53.4705ZM61.2193 2.664V25H56.7393V2.664H61.2193ZM64.5575 13.8C64.5575 11.6027 65.0482 9.64 66.0295 7.912C67.0322 6.16267 68.3868 4.808 70.0935 3.848C71.8215 2.86667 73.7522 2.376 75.8855 2.376C78.3815 2.376 80.5682 3.016 82.4455 4.296C84.3228 5.576 85.6348 7.34667 86.3815 9.608H81.2295C80.7175 8.54133 79.9922 7.74133 79.0535 7.208C78.1362 6.67467 77.0695 6.408 75.8535 6.408C74.5522 6.408 73.3895 6.71733 72.3655 7.336C71.3628 7.93333 70.5735 8.78667 69.9975 9.896C69.4428 11.0053 69.1655 12.3067 69.1655 13.8C69.1655 15.272 69.4428 16.5733 69.9975 17.704C70.5735 18.8133 71.3628 19.6773 72.3655 20.296C73.3895 20.8933 74.5522 21.192 75.8535 21.192C77.0695 21.192 78.1362 20.9253 79.0535 20.392C79.9922 19.8373 80.7175 19.0267 81.2295 17.96H86.3815C85.6348 20.2427 84.3228 22.024 82.4455 23.304C80.5895 24.5627 78.4028 25.192 75.8855 25.192C73.7522 25.192 71.8215 24.712 70.0935 23.752C68.3868 22.7707 67.0322 21.416 66.0295 19.688C65.0482 17.96 64.5575 15.9973 64.5575 13.8Z"
       fill="#FF845E"
       id="path2" />
    <path
       d="M98.048 25.288C96.384 25.288 94.88 24.9147 93.536 24.168C92.192 23.4 91.136 22.3333 90.368 20.968C89.6 19.5813 89.216 17.9813 89.216 16.168C89.216 14.376 89.6107 12.7867 90.4 11.4C91.1893 10.0133 92.2667 8.94667 93.632 8.2C94.9973 7.45333 96.5227 7.08 98.208 7.08C99.8933 7.08 101.419 7.45333 102.784 8.2C104.149 8.94667 105.227 10.0133 106.016 11.4C106.805 12.7867 107.2 14.376 107.2 16.168C107.2 17.96 106.795 19.5493 105.984 20.936C105.173 22.3227 104.064 23.4 102.656 24.168C101.269 24.9147 99.7333 25.288 98.048 25.288ZM98.048 22.12C98.9867 22.12 99.8613 21.896 100.672 21.448C101.504 21 102.176 20.328 102.688 19.432C103.2 18.536 103.456 17.448 103.456 16.168C103.456 14.888 103.211 13.8107 102.72 12.936C102.229 12.04 101.579 11.368 100.768 10.92C99.9573 10.472 99.0827 10.248 98.144 10.248C97.2053 10.248 96.3307 10.472 95.52 10.92C94.7307 11.368 94.1013 12.04 93.632 12.936C93.1627 13.8107 92.928 14.888 92.928 16.168C92.928 18.0667 93.408 19.5387 94.368 20.584C95.3493 21.608 96.576 22.12 98.048 22.12ZM132.15 7.08C133.537 7.08 134.774 7.368 135.862 7.944C136.972 8.52 137.836 9.37333 138.454 10.504C139.094 11.6347 139.414 13 139.414 14.6V25H135.798V15.144C135.798 13.5653 135.404 12.36 134.614 11.528C133.825 10.6747 132.748 10.248 131.382 10.248C130.017 10.248 128.929 10.6747 128.118 11.528C127.329 12.36 126.934 13.5653 126.934 15.144V25H123.318V15.144C123.318 13.5653 122.924 12.36 122.134 11.528C121.345 10.6747 120.268 10.248 118.902 10.248C117.537 10.248 116.449 10.6747 115.638 11.528C114.849 12.36 114.454 13.5653 114.454 15.144V25H110.806V7.368H114.454V9.384C115.052 8.65867 115.809 8.09333 116.726 7.688C117.644 7.28267 118.625 7.08 119.67 7.08C121.078 7.08 122.337 7.37867 123.446 7.976C124.556 8.57333 125.409 9.43733 126.006 10.568C126.54 9.50133 127.372 8.65867 128.502 8.04C129.633 7.4 130.849 7.08 132.15 7.08ZM165.4 7.08C166.787 7.08 168.024 7.368 169.112 7.944C170.222 8.52 171.086 9.37333 171.704 10.504C172.344 11.6347 172.664 13 172.664 14.6V25H169.048V15.144C169.048 13.5653 168.654 12.36 167.864 11.528C167.075 10.6747 165.998 10.248 164.632 10.248C163.267 10.248 162.179 10.6747 161.368 11.528C160.579 12.36 160.184 13.5653 160.184 15.144V25H156.568V15.144C156.568 13.5653 156.174 12.36 155.384 11.528C154.595 10.6747 153.518 10.248 152.152 10.248C150.787 10.248 149.699 10.6747 148.888 11.528C148.099 12.36 147.704 13.5653 147.704 15.144V25H144.056V7.368H147.704V9.384C148.302 8.65867 149.059 8.09333 149.976 7.688C150.894 7.28267 151.875 7.08 152.92 7.08C154.328 7.08 155.587 7.37867 156.696 7.976C157.806 8.57333 158.659 9.43733 159.256 10.568C159.79 9.50133 160.622 8.65867 161.752 8.04C162.883 7.4 164.099 7.08 165.4 7.08ZM193.274 7.368V25H189.626V22.92C189.05 23.6453 188.293 24.2213 187.354 24.648C186.437 25.0533 185.456 25.256 184.41 25.256C183.024 25.256 181.776 24.968 180.666 24.392C179.578 23.816 178.714 22.9627 178.074 21.832C177.456 20.7013 177.146 19.336 177.146 17.736V7.368H180.762V17.192C180.762 18.7707 181.157 19.9867 181.946 20.84C182.736 21.672 183.813 22.088 185.178 22.088C186.544 22.088 187.621 21.672 188.41 20.84C189.221 19.9867 189.626 18.7707 189.626 17.192V7.368H193.274ZM206.984 7.08C208.37 7.08 209.608 7.368 210.696 7.944C211.805 8.52 212.669 9.37333 213.288 10.504C213.906 11.6347 214.216 13 214.216 14.6V25H210.6V15.144C210.6 13.5653 210.205 12.36 209.416 11.528C208.626 10.6747 207.549 10.248 206.184 10.248C204.818 10.248 203.73 10.6747 202.92 11.528C202.13 12.36 201.736 13.5653 201.736 15.144V25H198.088V7.368H201.736V9.384C202.333 8.65867 203.09 8.09333 204.008 7.688C204.946 7.28267 205.938 7.08 206.984 7.08ZM220.725 5.032C220.063 5.032 219.509 4.808 219.061 4.36C218.613 3.912 218.389 3.35733 218.389 2.696C218.389 2.03467 218.613 1.48 219.061 1.032C219.509 0.583999 220.063 0.359999 220.725 0.359999C221.365 0.359999 221.909 0.583999 222.357 1.032C222.805 1.48 223.029 2.03467 223.029 2.696C223.029 3.35733 222.805 3.912 222.357 4.36C221.909 4.808 221.365 5.032 220.725 5.032ZM222.517 7.368V25H218.869V7.368H222.517ZM231.562 10.344V20.104C231.562 20.7653 231.712 21.2453 232.01 21.544C232.33 21.8213 232.864 21.96 233.61 21.96H235.85V25H232.97C231.328 25 230.069 24.616 229.194 23.848C228.32 23.08 227.882 21.832 227.882 20.104V10.344H225.802V7.368H227.882V2.984H231.562V7.368H235.85V10.344H231.562ZM255.085 7.368L244.269 33.288H240.493L244.077 24.712L237.133 7.368H241.197L246.157 20.808L251.309 7.368H255.085Z"
       fill="black"
       id="path4" />
  </g>
  <defs
     id="defs25">
    <filter
       id="filter0_d_8_20"
       x="0.208008"
       y="0.359985"
       width="258.876"
       height="40.928"
       filterUnits="userSpaceOnUse"
       color-interpolation-filters="sRGB">
      <feFlood
         flood-opacity="0"
         result="BackgroundImageFix"
         id="feFlood8" />
      <feColorMatrix
         in="SourceAlpha"
         type="matrix"
         values="0 0 0 0 0 0 0 0 0 0 0 0 0 0 0 0 0 0 127 0"
         result="hardAlpha"
         id="feColorMatrix10" />
      <feOffset
         dy="4"
         id="feOffset12" />
      <feGaussianBlur
         stdDeviation="2"
         id="feGaussianBlur14" />
      <feComposite
         in2="hardAlpha"
         operator="out"
         id="feComposite16" />
      <feColorMatrix
         type="matrix"
         values="0 0 0 0 0 0 0 0 0 0 0 0 0 0 0 0 0 0 0.25 0"
         id="feColorMatrix18" />
      <feBlend
         mode="normal"
         in2="BackgroundImageFix"
         result="effect1_dropShadow_8_20"
         id="feBlend20" />
      <feBlend
         mode="normal"
         in="SourceGraphic"
         in2="effect1_dropShadow_8_20"
         result="shape"
         id="feBlend22" />
    </filter>
  </defs>

</svg>
